# xmcd CD database file generated by Grip 2.94
# 
# Track frame offsets:
#       150
#       21657
#       44433
#       62340
#       84011
#       99943
#       133127
#       153142
#       162523
#       184009
#       209572
#       241302
#       255844
#       271033
#       309335
# 
# Disc length: 4470 seconds
# 
# Revision: 3
# Processed by: cddbd v1.4b41PL1 Copyright (c) Steve Scherf et al.
# Submitted via: Grip 2.94
# 
DISCID=b911740f
DTITLE=Various Artist - Night Rhythms 1 - Broadcasting the Blues
DYEAR=1900
DGENRE=
TTITLE0=Maelstrom (Instrumental) - Greg Douglass
TTITLE1=Drigs and Alcohol - Greg Douglass
TTITLE2=First You Cry - Bluebirds
TTITLE3=Skin Hunger - Jim Liban
TTITLE4=Walking In The Dark - Mick Clarke
TTITLE5=Hellhound - Rhett Tyler and Early Warning
TTITLE6=Midnight on the Delta - Steve Conn
TTITLE7=Eleven/Eleven - Delta Roux
TTITLE8=Night Patrol - Metropolitan Blues All Stars
TTITLE9=Full Moon on Main Street - Freddie and The Screamers
TTITLE10=Retribution - Mississippi Millie McClain
TTITLE11=Blue Earth - Bo Ramsey
TTITLE12=A Woman Will Do Wrong - Lazy Poker Blues Band
TTITLE13=Egyptian Priestess - Nuno Mindelis
TTITLE14=Past the Test of Time - Chris "Hammer" Smith
EXTD=
EXTT0=
EXTT1=
EXTT2=
EXTT3=
EXTT4=
EXTT5=
EXTT6=
EXTT7=
EXTT8=
EXTT9=
EXTT10=
EXTT11=
EXTT12=
EXTT13=
EXTT14=
PLAYORDER=
